<?xml version="1.0" standalone="no"?>
<!DOCTYPE svg PUBLIC "-//W3C//DTD SVG 20010904//EN"
 "http://www.w3.org/TR/2001/REC-SVG-20010904/DTD/svg10.dtd">
<svg version="1.0" xmlns="http://www.w3.org/2000/svg"
 width="551.000000pt" height="551.000000pt" viewBox="0 0 551.000000 551.000000"
 preserveAspectRatio="xMidYMid meet">
<metadata>
Created by potrace 1.14, written by Peter Selinger 2001-2017
</metadata>
<g transform="translate(0.000000,551.000000) scale(0.100000,-0.100000)"
fill="#000000" stroke="none">
<path d="M2500 5354 c-165 -20 -221 -28 -330 -50 -503 -103 -987 -373 -1356
-756 -384 -400 -616 -873 -711 -1453 -25 -155 -25 -582 0 -740 97 -604 354
-1109 773 -1515 971 -941 2477 -1006 3520 -152 505 414 838 998 939 1652 23
146 31 467 16 626 -58 620 -319 1173 -766 1620 -411 412 -899 658 -1485 749
-100 16 -516 29 -600 19z"/>
</g>
</svg>
